<?xml version="1.0" encoding="UTF-8"?>
<svg version="1.1" xmlns="http://www.w3.org/2000/svg" width="100" height="100">
<path d="M0 0 C1.23695748 0.57411797 2.46815354 1.16077057 3.6940918 1.75805664 C4.34911179 2.0664296 5.00413177 2.37480255 5.67900085 2.69252014 C7.75571331 3.67371993 9.82429052 4.670912 11.89331055 5.66821289 C13.30233832 6.33523799 14.71183939 7.00126426 16.12182617 7.66625977 C26.38027778 12.53018013 26.38027778 12.53018013 27.58081055 13.73071289 C27.67385073 15.20425637 27.6982732 16.6822188 27.69433594 18.15869141 C27.69422264 19.57004112 27.69422264 19.57004112 27.69410706 21.00990295 C27.68894577 22.0328093 27.68378448 23.05571564 27.6784668 24.10961914 C27.67705185 25.1514183 27.6756369 26.19321747 27.67417908 27.2665863 C27.66856135 30.60882383 27.65600585 33.95099546 27.64331055 37.29321289 C27.63829783 39.55297755 27.63373453 41.81274326 27.62963867 44.07250977 C27.61858616 49.6252668 27.60183079 55.17798514 27.58081055 60.73071289 C22.89026092 63.07919406 18.19879521 65.42582203 13.5057373 67.76928711 C11.98708318 68.52779557 10.4689162 69.28727939 8.95092773 70.04711914 C7.12571726 70.95482986 5.29121915 71.84380404 3.45581055 72.73071289 C2.27760742 73.30821289 1.0994043 73.88571289 -0.11450195 74.48071289 C-4.89880534 76.29037848 -8.02227744 76.24928094 -12.83837891 74.46142578 C-14.07533639 73.88730781 -15.30653244 73.30065521 -16.5324707 72.70336914 C-17.18749069 72.39499619 -17.84251068 72.08662323 -18.51737976 71.76890564 C-20.59409221 70.78770585 -22.66266942 69.79051378 -24.73168945 68.79321289 C-26.14071722 68.12618779 -27.5502183 67.46016152 -28.96020508 66.79516602 C-39.21865669 61.93124566 -39.21865669 61.93124566 -40.41918945 60.73071289 C-40.51222963 59.25716941 -40.5366521 57.77920698 -40.53271484 56.30273438 C-40.53263931 55.36183456 -40.53256378 54.42093475 -40.53248596 53.45152283 C-40.52732468 52.42861649 -40.52216339 51.40571014 -40.5168457 50.35180664 C-40.51543076 49.31000748 -40.51401581 48.26820831 -40.51255798 47.19483948 C-40.50694025 43.85260195 -40.49438475 40.51043032 -40.48168945 37.16821289 C-40.47667674 34.90844823 -40.47211344 32.64868252 -40.46801758 30.38891602 C-40.45696506 24.83615898 -40.44020969 19.28344064 -40.41918945 13.73071289 C-35.72863983 11.38223172 -31.03717412 9.03560375 -26.34411621 6.69213867 C-24.82546208 5.93363021 -23.30729511 5.17414639 -21.78930664 4.41430664 C-19.96409616 3.50659592 -18.12959805 2.61762174 -16.29418945 1.73071289 C-15.11598633 1.15321289 -13.9377832 0.57571289 -12.72387695 -0.01928711 C-7.93957356 -1.82895269 -4.81610147 -1.78785516 0 0 Z " fill="#58A780" transform="translate(56.419189453125,13.269287109375)"/>
<path d="M0 0 C0.33 0.99 0.66 1.98 1 3 C1.99 3 2.98 3 4 3 C4 3.66 4 4.32 4 5 C6.31 4.34 8.62 3.68 11 3 C11 13.66666667 11 24.33333333 11 35 C8.2118978 36.5066972 5.41896042 38.00419804 2.625 39.5 C1.8309375 39.92925781 1.036875 40.35851562 0.21875 40.80078125 C-0.54179688 41.20683594 -1.30234375 41.61289063 -2.0859375 42.03125 C-3.1385376 42.59682617 -3.1385376 42.59682617 -4.21240234 43.17382812 C-6 44 -6 44 -8 44 C-8.33 42.68 -8.66 41.36 -9 40 C-9 41.65 -9 43.3 -9 45 C-10.4562545 45.67119549 -11.91507867 46.33681807 -13.375 47 C-14.18710937 47.37125 -14.99921875 47.7425 -15.8359375 48.125 C-18 49 -18 49 -20 49 C-20 45.37 -20 41.74 -20 38 C-19.01 37.505 -19.01 37.505 -18 37 C-17.34786708 34.97536745 -17.34786708 34.97536745 -17 33 C-17.33 33 -17.66 33 -18 33 C-18.66 34.32 -19.32 35.64 -20 37 C-20 29.74 -20 22.48 -20 15 C-19.34 14.67 -18.68 14.34 -18 14 C-17.34786708 11.97536745 -17.34786708 11.97536745 -17 10 C-16.01 10 -15.02 10 -14 10 C-14 10.66 -14 11.32 -14 12 C-10.91240441 11.35932024 -10.91240441 11.35932024 -10.05078125 9.15234375 C-9.80714844 8.42144531 -9.56351563 7.69054688 -9.3125 6.9375 C-9.06113281 6.20402344 -8.80976562 5.47054687 -8.55078125 4.71484375 C-8.36902344 4.14894531 -8.18726563 3.58304688 -8 3 C-7.67 3.99 -7.34 4.98 -7 6 C-3.88667752 5.33131686 -3.88667752 5.33131686 -2.8125 2.9375 C-2.544375 2.298125 -2.27625 1.65875 -2 1 C-2 2.98 -2 4.96 -2 7 C-3.32 7.33 -4.64 7.66 -6 8 C-6.33 9.65 -6.66 11.3 -7 13 C-6.62875 12.071875 -6.62875 12.071875 -6.25 11.125 C-5 9 -5 9 -2.9375 8.1875 C-2.298125 7.795625 -1.65875 7.40375 -1 7 C-0.18129815 3.43793339 -0.18129815 3.43793339 0 0 Z " fill="#D9976C" transform="translate(71,37)"/>
<path d="M0 0 C2 1 2 1 3 2 C3.14115161 4.67058851 3.04247107 7.32432238 3 10 C3.66 10 4.32 10 5 10 C5.12375 10.928125 5.12375 10.928125 5.25 11.875 C5.81258459 14.18437567 5.81258459 14.18437567 8.0625 15.25 C9.0215625 15.62125 9.0215625 15.62125 10 16 C10 16.66 10 17.32 10 18 C8.02 17.67 6.04 17.34 4 17 C4 17.66 4 18.32 4 19 C2.68 19 1.36 19 0 19 C0 20.32 0 21.64 0 23 C0.66 23 1.32 23 2 23 C2 22.34 2 21.68 2 21 C4.76276177 21.52268466 7.3260876 22.10869587 10 23 C10 25.64 10 28.28 10 31 C9.34 30.67 8.68 30.34 8 30 C8 28.68 8 27.36 8 26 C7.34 26 6.68 26 6 26 C5.91840426 30.16138263 6.01751476 33.9472484 7 38 C7.99 38 8.98 38 10 38 C10 40.64 10 43.28 10 46 C0.88411104 43.34810503 -7.4774059 39.1194169 -16 35 C-15.67 33.68 -15.34 32.36 -15 31 C-15.99 30.67 -16.98 30.34 -18 30 C-18 30.99 -18 31.98 -18 33 C-18.99 32.67 -19.98 32.34 -21 32 C-21 26.06 -21 20.12 -21 14 C-20.01 14.33 -19.02 14.66 -18 15 C-18.33 13.68 -18.66 12.36 -19 11 C-19 11.66 -19 12.32 -19 13 C-19.66 13 -20.32 13 -21 13 C-21 11.02 -21 9.04 -21 7 C-18.525 7.495 -18.525 7.495 -16 8 C-15.67 7.34 -15.34 6.68 -15 6 C-14.67 6.99 -14.34 7.98 -14 9 C-13.01 9.33 -12.02 9.66 -11 10 C-11 9.34 -11 8.68 -11 8 C-10.34 8 -9.68 8 -9 8 C-9 7.01 -9 6.02 -9 5 C-7.68 5.33 -6.36 5.66 -5 6 C-4.896875 6.639375 -4.79375 7.27875 -4.6875 7.9375 C-4.460625 8.618125 -4.23375 9.29875 -4 10 C-3.01 10.33 -2.02 10.66 -1 11 C-1.020625 9.9275 -1.04125 8.855 -1.0625 7.75 C-1.0142016 4.85209576 -0.86844115 2.71387859 0 0 Z " fill="#D9966B" transform="translate(39,40)"/>
<path d="M0 0 C1.23695748 0.57411797 2.46815354 1.16077057 3.6940918 1.75805664 C4.34911179 2.0664296 5.00413177 2.37480255 5.67900085 2.69252014 C7.75571331 3.67371993 9.82429052 4.670912 11.89331055 5.66821289 C13.30233832 6.33523799 14.71183939 7.00126426 16.12182617 7.66625977 C26.38027778 12.53018013 26.38027778 12.53018013 27.58081055 13.73071289 C27.67385073 15.20425637 27.6982732 16.6822188 27.69433594 18.15869141 C27.69422264 19.57004112 27.69422264 19.57004112 27.69410706 21.00990295 C27.68894577 22.0328093 27.68378448 23.05571564 27.6784668 24.10961914 C27.67705185 25.1514183 27.6756369 26.19321747 27.67417908 27.2665863 C27.66856135 30.60882383 27.65600585 33.95099546 27.64331055 37.29321289 C27.63829783 39.55297755 27.63373453 41.81274326 27.62963867 44.07250977 C27.61858616 49.6252668 27.60183079 55.17798514 27.58081055 60.73071289 C22.89026092 63.07919406 18.19879521 65.42582203 13.5057373 67.76928711 C11.98708318 68.52779557 10.4689162 69.28727939 8.95092773 70.04711914 C7.12571726 70.95482986 5.29121915 71.84380404 3.45581055 72.73071289 C2.27760742 73.30821289 1.0994043 73.88571289 -0.11450195 74.48071289 C-4.89880534 76.29037848 -8.02227744 76.24928094 -12.83837891 74.46142578 C-14.07533639 73.88730781 -15.30653244 73.30065521 -16.5324707 72.70336914 C-17.18749069 72.39499619 -17.84251068 72.08662323 -18.51737976 71.76890564 C-20.59409221 70.78770585 -22.66266942 69.79051378 -24.73168945 68.79321289 C-26.14071722 68.12618779 -27.5502183 67.46016152 -28.96020508 66.79516602 C-39.21865669 61.93124566 -39.21865669 61.93124566 -40.41918945 60.73071289 C-40.51222963 59.25716941 -40.5366521 57.77920698 -40.53271484 56.30273438 C-40.53263931 55.36183456 -40.53256378 54.42093475 -40.53248596 53.45152283 C-40.52732468 52.42861649 -40.52216339 51.40571014 -40.5168457 50.35180664 C-40.51543076 49.31000748 -40.51401581 48.26820831 -40.51255798 47.19483948 C-40.50694025 43.85260195 -40.49438475 40.51043032 -40.48168945 37.16821289 C-40.47667674 34.90844823 -40.47211344 32.64868252 -40.46801758 30.38891602 C-40.45696506 24.83615898 -40.44020969 19.28344064 -40.41918945 13.73071289 C-35.72863983 11.38223172 -31.03717412 9.03560375 -26.34411621 6.69213867 C-24.82546208 5.93363021 -23.30729511 5.17414639 -21.78930664 4.41430664 C-19.96409616 3.50659592 -18.12959805 2.61762174 -16.29418945 1.73071289 C-15.11598633 1.15321289 -13.9377832 0.57571289 -12.72387695 -0.01928711 C-7.93957356 -1.82895269 -4.81610147 -1.78785516 0 0 Z M-15.8762207 4.28540039 C-17.66769531 5.08397461 -17.66769531 5.08397461 -19.49536133 5.89868164 C-20.10822998 6.1788916 -20.72109863 6.45910156 -21.35253906 6.74780273 C-23.23806802 7.60862497 -25.13138372 8.45008604 -27.02661133 9.28930664 C-33.12607323 11.46514863 -33.12607323 11.46514863 -37.41918945 15.73071289 C-37.08918945 16.06071289 -36.75918945 16.39071289 -36.41918945 16.73071289 C-37.07918945 16.73071289 -37.73918945 16.73071289 -38.41918945 16.73071289 C-38.41918945 22.01071289 -38.41918945 27.29071289 -38.41918945 32.73071289 C-38.08918945 32.73071289 -37.75918945 32.73071289 -37.41918945 32.73071289 C-37.41918945 30.75071289 -37.41918945 28.77071289 -37.41918945 26.73071289 C-36.42918945 26.73071289 -35.43918945 26.73071289 -34.41918945 26.73071289 C-34.41918945 25.74071289 -34.41918945 24.75071289 -34.41918945 23.73071289 C-33.42918945 23.73071289 -32.43918945 23.73071289 -31.41918945 23.73071289 C-31.41918945 24.39071289 -31.41918945 25.05071289 -31.41918945 25.73071289 C-32.07918945 25.73071289 -32.73918945 25.73071289 -33.41918945 25.73071289 C-33.41918945 26.39071289 -33.41918945 27.05071289 -33.41918945 27.73071289 C-34.07918945 27.73071289 -34.73918945 27.73071289 -35.41918945 27.73071289 C-35.41918945 29.71071289 -35.41918945 31.69071289 -35.41918945 33.73071289 C-35.08918945 32.74071289 -34.75918945 31.75071289 -34.41918945 30.73071289 C-33.75918945 31.39071289 -33.09918945 32.05071289 -32.41918945 32.73071289 C-32.74918945 33.39071289 -33.07918945 34.05071289 -33.41918945 34.73071289 C-35.06918945 34.40071289 -36.71918945 34.07071289 -38.41918945 33.73071289 C-38.41918945 35.71071289 -38.41918945 37.69071289 -38.41918945 39.73071289 C-37.75918945 39.73071289 -37.09918945 39.73071289 -36.41918945 39.73071289 C-35.92418945 39.23571289 -35.92418945 39.23571289 -35.41918945 38.73071289 C-35.41918945 39.72071289 -35.41918945 40.71071289 -35.41918945 41.73071289 C-36.40918945 41.40071289 -37.39918945 41.07071289 -38.41918945 40.73071289 C-38.41918945 46.67071289 -38.41918945 52.61071289 -38.41918945 58.73071289 C-37.42918945 59.06071289 -36.43918945 59.39071289 -35.41918945 59.73071289 C-35.41918945 58.74071289 -35.41918945 57.75071289 -35.41918945 56.73071289 C-34.42918945 57.06071289 -33.43918945 57.39071289 -32.41918945 57.73071289 C-32.74918945 59.05071289 -33.07918945 60.37071289 -33.41918945 61.73071289 C-29.55288875 63.58281153 -25.67487975 65.40898169 -21.79418945 67.23071289 C-20.69977539 67.75536133 -19.60536133 68.28000977 -18.4777832 68.82055664 C-17.41430664 69.3168457 -16.35083008 69.81313477 -15.25512695 70.32446289 C-14.2810791 70.78530273 -13.30703125 71.24614258 -12.3034668 71.72094727 C-8.24067856 73.14330143 -4.93665743 73.25045727 -0.86450195 71.85571289 C-0.09879883 71.48446289 0.6669043 71.11321289 1.45581055 70.73071289 C2.23698242 70.35946289 3.0181543 69.98821289 3.82299805 69.60571289 C4.40307617 69.31696289 4.9831543 69.02821289 5.58081055 68.73071289 C5.58081055 67.08071289 5.58081055 65.43071289 5.58081055 63.73071289 C6.07581055 65.71071289 6.07581055 65.71071289 6.58081055 67.73071289 C11.20756712 66.33846699 15.22767286 64.43550305 19.45581055 62.10571289 C20.60823242 61.47407227 21.7606543 60.84243164 22.94799805 60.19165039 C23.81682617 59.70954102 24.6856543 59.22743164 25.58081055 58.73071289 C25.60982455 54.14739283 25.62761403 49.56409638 25.64331055 44.98071289 C25.65587891 43.0277832 25.65587891 43.0277832 25.66870117 41.03540039 C25.67353516 39.15981445 25.67353516 39.15981445 25.6784668 37.24633789 C25.68632202 35.51818848 25.68632202 35.51818848 25.69433594 33.75512695 C25.5988554 31.21144325 25.32998316 29.14672976 24.58081055 26.73071289 C22.60081055 27.39071289 20.62081055 28.05071289 18.58081055 28.73071289 C18.58081055 28.07071289 18.58081055 27.41071289 18.58081055 26.73071289 C17.59081055 26.73071289 16.60081055 26.73071289 15.58081055 26.73071289 C15.08581055 25.24571289 15.08581055 25.24571289 14.58081055 23.73071289 C14.49831055 24.84446289 14.41581055 25.95821289 14.33081055 27.10571289 C14.08331055 28.30196289 13.83581055 29.49821289 13.58081055 30.73071289 C11.58081055 31.98071289 11.58081055 31.98071289 9.58081055 32.73071289 C9.25081055 33.72071289 8.92081055 34.71071289 8.58081055 35.73071289 C8.58081055 34.41071289 8.58081055 33.09071289 8.58081055 31.73071289 C9.90081055 31.40071289 11.22081055 31.07071289 12.58081055 30.73071289 C12.58081055 28.75071289 12.58081055 26.77071289 12.58081055 24.73071289 C12.29206055 25.37008789 12.00331055 26.00946289 11.70581055 26.66821289 C10.58081055 28.73071289 10.58081055 28.73071289 8.58081055 29.73071289 C8.58081055 29.07071289 8.58081055 28.41071289 8.58081055 27.73071289 C9.24081055 27.73071289 9.90081055 27.73071289 10.58081055 27.73071289 C10.58081055 26.41071289 10.58081055 25.09071289 10.58081055 23.73071289 C12.56081055 23.40071289 14.54081055 23.07071289 16.58081055 22.73071289 C16.58081055 23.39071289 16.58081055 24.05071289 16.58081055 24.73071289 C17.57081055 24.73071289 18.56081055 24.73071289 19.58081055 24.73071289 C20.07581055 26.21571289 20.07581055 26.21571289 20.58081055 27.73071289 C22.23081055 27.07071289 23.88081055 26.41071289 25.58081055 25.73071289 C25.58081055 22.76071289 25.58081055 19.79071289 25.58081055 16.73071289 C24.59081055 16.73071289 23.60081055 16.73071289 22.58081055 16.73071289 C23.24081055 16.07071289 23.90081055 15.41071289 24.58081055 14.73071289 C20.70999032 12.86441093 16.83224259 11.01361449 12.94750977 9.17651367 C11.62846925 8.5501392 10.31137209 7.91965451 8.99633789 7.28491211 C7.0998399 6.37040097 5.19671987 5.47116322 3.29174805 4.57446289 C2.15012207 4.02983398 1.00849609 3.48520508 -0.16772461 2.92407227 C-6.21400467 0.70495401 -10.11405652 1.70302013 -15.8762207 4.28540039 Z " fill="#0C0C09" transform="translate(56.419189453125,13.269287109375)"/>
<path d="M0 0 C2 1 2 1 3 3 C5.52733235 3.65555119 5.52733235 3.65555119 8 4 C5.50935112 4.68707555 3.62113708 5 1 5 C1 5.66 1 6.32 1 7 C1.58265625 7.15855469 2.1653125 7.31710938 2.765625 7.48046875 C7.75584757 8.90064215 12.44228845 10.58117659 17.1875 12.6875 C21.78460681 14.66870474 25.03610952 15.56407846 30 15 C28.02 15.99 28.02 15.99 26 17 C26.495 19.475 26.495 19.475 27 22 C30.12197478 20.6910428 30.12197478 20.6910428 32 18 C30.35 18.66 28.7 19.32 27 20 C27 19.34 27 18.68 27 18 C29.31 17.34 31.62 16.68 34 16 C34.495 17.485 34.495 17.485 35 19 C35.66 17.35 36.32 15.7 37 14 C37.99 14.33 38.98 14.66 40 15 C39.34 15 38.68 15 38 15 C37.814375 16.11375 37.814375 16.11375 37.625 17.25 C37.04513299 19.80141485 36.26291261 21.7267573 35 24 C34.01 24 33.02 24 32 24 C32 23.34 32 22.68 32 22 C31.01 22 30.02 22 29 22 C28.505 24.475 28.505 24.475 28 27 C27.34 27 26.68 27 26 27 C26.495 35.91 26.495 35.91 27 45 C27.99 44.67 28.98 44.34 30 44 C30.73323796 41.98491642 30.73323796 41.98491642 31 40 C31 41.65 31 43.3 31 45 C30.34 45 29.68 45 29 45 C28.67 46.65 28.34 48.3 28 50 C27.34 50 26.68 50 26 50 C26 53.63 26 57.26 26 61 C25.34 61 24.68 61 24 61 C24 58.36 24 55.72 24 53 C23.01 53 22.02 53 21 53 C18.75171948 48.50343896 18.83317728 44.92127034 19 40 C20.485 40.495 20.485 40.495 22 41 C22.6875 43.0625 22.6875 43.0625 23 45 C23.33 42.69 23.66 40.38 24 38 C23.236875 37.855625 22.47375 37.71125 21.6875 37.5625 C19 37 19 37 16 36 C16 36.66 16 37.32 16 38 C15.34 38 14.68 38 14 38 C14 36.68 14 35.36 14 34 C15.32 34 16.64 34 18 34 C18 33.34 18 32.68 18 32 C19.98 32.33 21.96 32.66 24 33 C24 32.34 24 31.68 24 31 C22.35 30.34 20.7 29.68 19 29 C19 27.68 19 26.36 19 25 C18.34 25 17.68 25 17 25 C17 22.36 17 19.72 17 17 C16.34 16.67 15.68 16.34 15 16 C15 16.99 15 17.98 15 19 C14.34 19 13.68 19 13 19 C13 21.31 13 23.62 13 26 C11.68 25.67 10.36 25.34 9 25 C8.8453125 24.0409375 8.8453125 24.0409375 8.6875 23.0625 C8.460625 22.381875 8.23375 21.70125 8 21 C7.01 20.67 6.02 20.34 5 20 C5 20.99 5 21.98 5 23 C4.34 23 3.68 23 3 23 C3 23.66 3 24.32 3 25 C2.01 25 1.02 25 0 25 C-0.12375 24.195625 -0.2475 23.39125 -0.375 22.5625 C-0.58125 21.716875 -0.7875 20.87125 -1 20 C-1.66 19.67 -2.32 19.34 -3 19 C-3.33 19.99 -3.66 20.98 -4 22 C-4 20.02 -4 18.04 -4 16 C-3.34 16 -2.68 16 -2 16 C-2 15.34 -2 14.68 -2 14 C-1.34 14 -0.68 14 0 14 C0 13.34 0 12.68 0 12 C-0.99 12 -1.98 12 -3 12 C-3 12.99 -3 13.98 -3 15 C-3.99 15 -4.98 15 -6 15 C-6 16.98 -6 18.96 -6 21 C-6.33 21 -6.66 21 -7 21 C-7 15.72 -7 10.44 -7 5 C-6.01 5 -5.02 5 -4 5 C-4.66 4.34 -5.32 3.68 -6 3 C-4.03533587 1.93224776 -2.03144641 0.93446535 0 0 Z " fill="#438062" transform="translate(25,25)"/>
<path d="M0 0 C2.64347024 0.45316633 4.91851126 0.96354451 7.375 2.0625 C10.67302227 3.2403651 13.52515231 3.13626854 17 3 C15.02 3.99 15.02 3.99 13 5 C13.33 6.65 13.66 8.3 14 10 C17.12197478 8.6910428 17.12197478 8.6910428 19 6 C17.35 6.66 15.7 7.32 14 8 C14 7.34 14 6.68 14 6 C16.31 5.34 18.62 4.68 21 4 C21.33 4.99 21.66 5.98 22 7 C22.66 5.35 23.32 3.7 24 2 C24.99 2.33 25.98 2.66 27 3 C26.34 3 25.68 3 25 3 C24.87625 3.7425 24.7525 4.485 24.625 5.25 C24.04513299 7.80141485 23.26291261 9.7267573 22 12 C21.01 12 20.02 12 19 12 C19 11.34 19 10.68 19 10 C18.01 10 17.02 10 16 10 C15.67 11.65 15.34 13.3 15 15 C14.34 15 13.68 15 13 15 C13.33 20.94 13.66 26.88 14 33 C15.485 32.505 15.485 32.505 17 32 C17.73323796 29.98491642 17.73323796 29.98491642 18 28 C18 29.65 18 31.3 18 33 C17.34 33 16.68 33 16 33 C15.505 35.475 15.505 35.475 15 38 C14.34 38 13.68 38 13 38 C13 41.63 13 45.26 13 49 C12.34 49 11.68 49 11 49 C11 46.36 11 43.72 11 41 C10.01 41 9.02 41 8 41 C5.75171948 36.50343896 5.83317728 32.92127034 6 28 C6.99 28.33 7.98 28.66 9 29 C9.6875 31.0625 9.6875 31.0625 10 33 C10.33 30.69 10.66 28.38 11 26 C10.236875 25.855625 9.47375 25.71125 8.6875 25.5625 C6 25 6 25 3 24 C3 24.66 3 25.32 3 26 C2.34 26 1.68 26 1 26 C1 24.68 1 23.36 1 22 C2.32 22 3.64 22 5 22 C5 21.34 5 20.68 5 20 C6.98 20.33 8.96 20.66 11 21 C11 20.34 11 19.68 11 19 C8.525 18.01 8.525 18.01 6 17 C6 15.68 6 14.36 6 13 C5.34 13 4.68 13 4 13 C4 10.36 4 7.72 4 5 C3.34 4.67 2.68 4.34 2 4 C2.99 4 3.98 4 5 4 C5.0825 4.61875 5.165 5.2375 5.25 5.875 C5.81258459 8.18437567 5.81258459 8.18437567 8.0625 9.25 C8.701875 9.4975 9.34125 9.745 10 10 C10.33 8.35 10.66 6.7 11 5 C10.37351562 4.80664062 9.74703125 4.61328125 9.1015625 4.4140625 C8.28429688 4.15367188 7.46703125 3.89328125 6.625 3.625 C5.81289063 3.36976562 5.00078125 3.11453125 4.1640625 2.8515625 C2 2 2 2 0 0 Z " fill="#563B29" transform="translate(38,37)"/>
<path d="M0 0 C0.97582031 0.20367188 1.95164062 0.40734375 2.95703125 0.6171875 C3.69308594 0.78476562 4.42914063 0.95234375 5.1875 1.125 C4.1975 2.445 3.2075 3.765 2.1875 5.125 C5.6525 4.63 5.6525 4.63 9.1875 4.125 C9.5175 4.785 9.8475 5.445 10.1875 6.125 C12.30596285 6.81229254 12.30596285 6.81229254 14.75 7.25 C15.57628906 7.41757812 16.40257813 7.58515625 17.25390625 7.7578125 C17.89199219 7.87898438 18.53007813 8.00015625 19.1875 8.125 C15.27013419 9.2950097 12.20790985 8.82084017 8.1875 8.125 C7.8575 9.115 7.5275 10.105 7.1875 11.125 C6.5275 11.125 5.8675 11.125 5.1875 11.125 C5.1875 11.785 5.1875 12.445 5.1875 13.125 C6.1775 13.125 7.1675 13.125 8.1875 13.125 C8.1875 12.465 8.1875 11.805 8.1875 11.125 C8.8475 11.125 9.5075 11.125 10.1875 11.125 C10.1875 12.445 10.1875 13.765 10.1875 15.125 C11.8375 15.125 13.4875 15.125 15.1875 15.125 C14.8575 16.115 14.5275 17.105 14.1875 18.125 C9.65840994 19.17442331 7.05273947 19.0847793 2.7890625 17.25390625 C1.81582031 16.84462891 0.84257813 16.43535156 -0.16015625 16.01367188 C-1.15917969 15.57603516 -2.15820312 15.13839844 -3.1875 14.6875 C-4.72083984 14.0368457 -4.72083984 14.0368457 -6.28515625 13.37304688 C-8.80027058 12.30353564 -11.308676 11.22062154 -13.8125 10.125 C-13.8125 9.465 -13.8125 8.805 -13.8125 8.125 C-11.8325 7.795 -9.8525 7.465 -7.8125 7.125 C-9.4625 7.125 -11.1125 7.125 -12.8125 7.125 C-13.1425 6.135 -13.4725 5.145 -13.8125 4.125 C-9.79756296 -0.52387447 -5.87059346 -1.27314075 0 0 Z " fill="#65BB90" transform="translate(39.8125,21.875)"/>
<path d="M0 0 C3 1.1875 3 1.1875 5 3.1875 C4.67 3.5175 4.34 3.8475 4 4.1875 C4.66 4.1875 5.32 4.1875 6 4.1875 C6 7.1575 6 10.1275 6 13.1875 C4.02 13.8475 2.04 14.5075 0 15.1875 C0 14.1975 0 13.2075 0 12.1875 C-0.99 12.1875 -1.98 12.1875 -3 12.1875 C-3 11.5275 -3 10.8675 -3 10.1875 C-4.98 10.5175 -6.96 10.8475 -9 11.1875 C-9 12.5075 -9 13.8275 -9 15.1875 C-9.66 15.1875 -10.32 15.1875 -11 15.1875 C-11.33 15.8475 -11.66 16.5075 -12 17.1875 C-12 16.1975 -12 15.2075 -12 14.1875 C-12.66 13.8575 -13.32 13.5275 -14 13.1875 C-14.12375 13.950625 -14.2475 14.71375 -14.375 15.5 C-15 18.1875 -15 18.1875 -17 21.1875 C-17 19.2075 -17 17.2275 -17 15.1875 C-19.31 15.8475 -21.62 16.5075 -24 17.1875 C-23.01 17.1875 -22.02 17.1875 -21 17.1875 C-20.34 17.1875 -19.68 17.1875 -19 17.1875 C-19.33 18.1775 -19.66 19.1675 -20 20.1875 C-20.99 20.5175 -21.98 20.8475 -23 21.1875 C-23.66 22.5075 -24.32 23.8275 -25 25.1875 C-25 22.2175 -25 19.2475 -25 16.1875 C-23.68 15.8575 -22.36 15.5275 -21 15.1875 C-21 14.5275 -21 13.8675 -21 13.1875 C-19.78441406 12.70539062 -18.56882812 12.22328125 -17.31640625 11.7265625 C-15.73162671 11.08889973 -14.14699908 10.45085934 -12.5625 9.8125 C-11.76005859 9.49539062 -10.95761719 9.17828125 -10.13085938 8.8515625 C-9.36708984 8.5421875 -8.60332031 8.2328125 -7.81640625 7.9140625 C-7.10943604 7.63127441 -6.40246582 7.34848633 -5.67407227 7.05712891 C-3.80989123 6.29692067 -3.80989123 6.29692067 -3 4.1875 C-3.66 4.1875 -4.32 4.1875 -5 4.1875 C-5 2.8675 -5 1.5475 -5 0.1875 C-3 -0.8125 -3 -0.8125 0 0 Z " fill="#468B6B" transform="translate(76,25.8125)"/>
<path d="M0 0 C2.64347024 0.45316633 4.91851126 0.96354451 7.375 2.0625 C10.67302227 3.2403651 13.52515231 3.13626854 17 3 C15.02 3.99 15.02 3.99 13 5 C13.33 6.65 13.66 8.3 14 10 C17.12197478 8.6910428 17.12197478 8.6910428 19 6 C17.35 6.66 15.7 7.32 14 8 C14 7.34 14 6.68 14 6 C16.31 5.34 18.62 4.68 21 4 C21.33 4.99 21.66 5.98 22 7 C22.66 5.35 23.32 3.7 24 2 C24.99 2.33 25.98 2.66 27 3 C26.34 3 25.68 3 25 3 C24.87625 3.7425 24.7525 4.485 24.625 5.25 C24.04513299 7.80141485 23.26291261 9.7267573 22 12 C21.01 12 20.02 12 19 12 C19 11.34 19 10.68 19 10 C18.01 10 17.02 10 16 10 C15.67 11.65 15.34 13.3 15 15 C13.35 15 11.7 15 10 15 C10 15.99 10 16.98 10 18 C8.68 17.67 7.36 17.34 6 17 C6 15.68 6 14.36 6 13 C5.34 13 4.68 13 4 13 C4 10.36 4 7.72 4 5 C3.34 4.67 2.68 4.34 2 4 C2.99 4 3.98 4 5 4 C5.0825 4.61875 5.165 5.2375 5.25 5.875 C5.81258459 8.18437567 5.81258459 8.18437567 8.0625 9.25 C8.701875 9.4975 9.34125 9.745 10 10 C10.33 8.35 10.66 6.7 11 5 C10.37351562 4.80664062 9.74703125 4.61328125 9.1015625 4.4140625 C8.28429688 4.15367188 7.46703125 3.89328125 6.625 3.625 C5.81289063 3.36976562 5.00078125 3.11453125 4.1640625 2.8515625 C2 2 2 2 0 0 Z " fill="#333124" transform="translate(38,37)"/>
<path d="M0 0 C0.33 0.66 0.66 1.32 1 2 C3.31 1.34 5.62 0.68 8 0 C8 6 8 12 8 18 C7.01 18.33 6.02 18.66 5 19 C4.67 18.34 4.34 17.68 4 17 C3.34 17 2.68 17 2 17 C2 15.68 2 14.36 2 13 C0.68 13.33 -0.64 13.66 -2 14 C-1.125 9.25 -1.125 9.25 0 7 C-0.66 7 -1.32 7 -2 7 C-2 5.68 -2 4.36 -2 3 C-1.34 3 -0.68 3 0 3 C0 2.01 0 1.02 0 0 Z " fill="#DC966A" transform="translate(74,40)"/>
<path d="M0 0 C0.66 0 1.32 0 2 0 C2 1.32 2 2.64 2 4 C2.99 4 3.98 4 5 4 C5 5.32 5 6.64 5 8 C5.66 8 6.32 8 7 8 C7 7.01 7 6.02 7 5 C7.99 5.33 8.98 5.66 10 6 C9.34 6 8.68 6 8 6 C8 8.31 8 10.62 8 13 C6.68 12.67 5.36 12.34 4 12 C3.896875 11.360625 3.79375 10.72125 3.6875 10.0625 C3.460625 9.381875 3.23375 8.70125 3 8 C2.01 7.67 1.02 7.34 0 7 C0 7.99 0 8.98 0 10 C-0.66 10 -1.32 10 -2 10 C-2 10.66 -2 11.32 -2 12 C-2.99 12 -3.98 12 -5 12 C-5.12375 11.195625 -5.2475 10.39125 -5.375 9.5625 C-5.684375 8.2940625 -5.684375 8.2940625 -6 7 C-6.66 6.67 -7.32 6.34 -8 6 C-8.33 6.99 -8.66 7.98 -9 9 C-9 7.02 -9 5.04 -9 3 C-6.36 3.33 -3.72 3.66 -1 4 C-0.67 2.68 -0.34 1.36 0 0 Z " fill="#835840" transform="translate(30,38)"/>
<path d="M0 0 C0.33 0.99 0.66 1.98 1 3 C1.99 3 2.98 3 4 3 C3.67 4.32 3.34 5.64 3 7 C2.67 6.34 2.34 5.68 2 5 C1.01 5 0.02 5 -1 5 C-1 7.64 -1 10.28 -1 13 C-2.98 13.66 -4.96 14.32 -7 15 C-6.67 16.32 -6.34 17.64 -6 19 C-7.98 19.66 -9.96 20.32 -12 21 C-12 19.35 -12 17.7 -12 16 C-10.68 15.67 -9.36 15.34 -8 15 C-8 13.68 -8 12.36 -8 11 C-7.34 10.67 -6.68 10.34 -6 10 C-5.835 9.34 -5.67 8.68 -5.5 8 C-5.335 7.34 -5.17 6.68 -5 6 C-4.34 5.67 -3.68 5.34 -3 5 C-2.835 4.34 -2.67 3.68 -2.5 3 C-2.335 2.34 -2.17 1.68 -2 1 C-1.34 0.67 -0.68 0.34 0 0 Z " fill="#805840" transform="translate(75,60)"/>
<path d="M0 0 C2 1 2 1 3 2 C3.14115161 4.67058851 3.04247107 7.32432238 3 10 C3.66 10 4.32 10 5 10 C5.0825 10.61875 5.165 11.2375 5.25 11.875 C5.81258459 14.18437567 5.81258459 14.18437567 8.0625 15.25 C8.701875 15.4975 9.34125 15.745 10 16 C10 16.66 10 17.32 10 18 C2.25 17.125 2.25 17.125 0 16 C-1.52162634 10.82647045 -1.64952764 5.15477388 0 0 Z " fill="#AC7956" transform="translate(39,40)"/>
<path d="M0 0 C6.22987798 0.50512524 11.45474233 3.32604123 17 6 C17 7.98 17 9.96 17 12 C15.02 11.01 13.04 10.02 11 9 C11 7.68 11 6.36 11 5 C9.68 4.67 8.36 4.34 7 4 C7 4.99 7 5.98 7 7 C6.34 7 5.68 7 5 7 C5 7.99 5 8.98 5 10 C4.34 10 3.68 10 3 10 C2.01 6.7 1.02 3.4 0 0 Z " fill="#59B087" transform="translate(32,36)"/>
<path d="M0 0 C0.66 0.33 1.32 0.66 2 1 C1 4 1 4 -1.28491211 5.36621094 C-2.27241455 5.81770508 -3.25991699 6.26919922 -4.27734375 6.734375 C-5.34791016 7.22550781 -6.41847656 7.71664062 -7.52148438 8.22265625 C-8.64876953 8.72667969 -9.77605469 9.23070313 -10.9375 9.75 C-12.06091797 10.26949219 -13.18433594 10.78898437 -14.34179688 11.32421875 C-20.5482192 14.13819496 -20.5482192 14.13819496 -23 15 C-23.66 14.67 -24.32 14.34 -25 14 C-23.625 12.5 -23.625 12.5 -22 11 C-21.34 11 -20.68 11 -20 11 C-20 9.35 -20 7.7 -20 6 C-19.34 6.33 -18.68 6.66 -18 7 C-18.33 7.99 -18.66 8.98 -19 10 C-18.43490723 9.6918335 -17.86981445 9.38366699 -17.28759766 9.06616211 C-14.73780576 7.68163717 -12.18157539 6.30945533 -9.625 4.9375 C-8.73554687 4.45216797 -7.84609375 3.96683594 -6.9296875 3.46679688 C-5.65351562 2.78520508 -5.65351562 2.78520508 -4.3515625 2.08984375 C-3.56604004 1.66566162 -2.78051758 1.24147949 -1.97119141 0.80444336 C-1.32069824 0.53897705 -0.67020508 0.27351074 0 0 Z " fill="#0A0604" transform="translate(82,71)"/>
<path d="M0 0 C3 1.1875 3 1.1875 5 3.1875 C4.67 3.5175 4.34 3.8475 4 4.1875 C4.66 4.1875 5.32 4.1875 6 4.1875 C5.67 6.4975 5.34 8.8075 5 11.1875 C3.68 11.5175 2.36 11.8475 1 12.1875 C1.66 10.2075 2.32 8.2275 3 6.1875 C0.69 6.5175 -1.62 6.8475 -4 7.1875 C-3.67 6.1975 -3.34 5.2075 -3 4.1875 C-3.66 4.1875 -4.32 4.1875 -5 4.1875 C-5 2.8675 -5 1.5475 -5 0.1875 C-3 -0.8125 -3 -0.8125 0 0 Z " fill="#509C78" transform="translate(76,25.8125)"/>
<path d="M0 0 C0.33 0.66 0.66 1.32 1 2 C3.31 1.34 5.62 0.68 8 0 C7.34 1.32 6.68 2.64 6 4 C5.34 4 4.68 4 4 4 C4 5.65 4 7.3 4 9 C3.01 9.33 2.02 9.66 1 10 C1 10.99 1 11.98 1 13 C0.01 13.33 -0.98 13.66 -2 14 C-1.125 9.25 -1.125 9.25 0 7 C-0.66 7 -1.32 7 -2 7 C-2 5.68 -2 4.36 -2 3 C-1.34 3 -0.68 3 0 3 C0 2.01 0 1.02 0 0 Z " fill="#996549" transform="translate(74,40)"/>
<path d="M0 0 C-1 3 -1 3 -2.94946289 4.16674805 C-4.1984436 4.70875854 -4.1984436 4.70875854 -5.47265625 5.26171875 C-6.37177734 5.65810547 -7.27089844 6.05449219 -8.19726562 6.46289062 C-9.14279297 6.86701172 -10.08832031 7.27113281 -11.0625 7.6875 C-12.01189453 8.10322266 -12.96128906 8.51894531 -13.93945312 8.94726562 C-16.28898698 9.97444877 -18.64240128 10.99149801 -21 12 C-21 11.01 -21 10.02 -21 9 C-3 0 -3 0 0 0 Z " fill="#030605" transform="translate(41,16)"/>
<path d="M0 0 C0 0.66 0 1.32 0 2 C0.99 2 1.98 2 3 2 C3.33 2.66 3.66 3.32 4 4 C5.32 3.67 6.64 3.34 8 3 C8 3.66 8 4.32 8 5 C6.02 5.33 4.04 5.66 2 6 C2 5.34 2 4.68 2 4 C1.01 4 0.02 4 -1 4 C-1.2475 4.804375 -1.495 5.60875 -1.75 6.4375 C-3 9 -3 9 -5.125 9.8125 C-5.74375 9.874375 -6.3625 9.93625 -7 10 C-7.33 11.65 -7.66 13.3 -8 15 C-8.99 14.67 -9.98 14.34 -11 14 C-10.34 13.67 -9.68 13.34 -9 13 C-8.34786708 10.97536745 -8.34786708 10.97536745 -8 9 C-6.68 8.67 -5.36 8.34 -4 8 C-4.33 7.34 -4.66 6.68 -5 6 C-5.99 6.33 -6.98 6.66 -8 7 C-8 6.34 -8 5.68 -8 5 C-7.34 5 -6.68 5 -6 5 C-6 3.68 -6 2.36 -6 1 C-4 0 -4 0 0 0 Z " fill="#313024" transform="translate(73,36)"/>
<path d="M0 0 C2.31 0.66 4.62 1.32 7 2 C6.67 3.65 6.34 5.3 6 7 C5.34 7 4.68 7 4 7 C4 7.99 4 8.98 4 10 C3.01 10 2.02 10 1 10 C1 11.98 1 13.96 1 16 C0.67 16 0.34 16 0 16 C0 10.72 0 5.44 0 0 Z " fill="#69BD91" transform="translate(18,30)"/>
<path d="M0 0 C-0.33 1.65 -0.66 3.3 -1 5 C-0.01 5 0.98 5 2 5 C2.33 4.01 2.66 3.02 3 2 C3 3.65 3 5.3 3 7 C1.02 7.66 -0.96 8.32 -3 9 C-3 8.01 -3 7.02 -3 6 C-3.99 6 -4.98 6 -6 6 C-6 5.34 -6 4.68 -6 4 C-6.99 3.67 -7.98 3.34 -9 3 C-6.01800145 0.01800145 -4.21244839 0 0 0 Z " fill="#61B58B" transform="translate(79,32)"/>
<path d="M0 0 C0.66 0.33 1.32 0.66 2 1 C2.125 7.625 2.125 7.625 1 11 C-1.76276177 10.47731534 -4.3260876 9.89130413 -7 9 C-7 9.66 -7 10.32 -7 11 C-7.66 11 -8.32 11 -9 11 C-9 9.68 -9 8.36 -9 7 C-7.68 7 -6.36 7 -5 7 C-5 6.34 -5 5.68 -5 5 C-2.03 5.495 -2.03 5.495 1 6 C1 5.34 1 4.68 1 4 C0.34 3.67 -0.32 3.34 -1 3 C-0.67 2.01 -0.34 1.02 0 0 Z " fill="#805944" transform="translate(48,52)"/>
<path d="M0 0 C0.33 0.99 0.66 1.98 1 3 C2.32 3 3.64 3 5 3 C5 2.34 5 1.68 5 1 C6.32 1 7.64 1 9 1 C9 1.66 9 2.32 9 3 C9.99 3 10.98 3 12 3 C12 4.65 12 6.3 12 8 C10.68 8.33 9.36 8.66 8 9 C8.66 7.68 9.32 6.36 10 5 C8.68 5 7.36 5 6 5 C6 5.66 6 6.32 6 7 C5.01 7 4.02 7 3 7 C3 6.01 3 5.02 3 4 C2.01 4 1.02 4 0 4 C0 2.68 0 1.36 0 0 Z " fill="#694632" transform="translate(53,55)"/>
<path d="M0 0 C3 1 3 1 4.1875 3.125 C5.14531259 6.51418301 5.13746202 9.49471861 5 13 C4.01 13 3.02 13 2 13 C-0.24828052 8.50343896 -0.16682272 4.92127034 0 0 Z " fill="#80553D" transform="translate(44,65)"/>
<path d="M0 0 C5.41538462 -0.36923077 5.41538462 -0.36923077 8.375 1.5 C8.91125 1.995 9.4475 2.49 10 3 C9.01 4.485 9.01 4.485 8 6 C8.33 6.99 8.66 7.98 9 9 C7.02 8.34 5.04 7.68 3 7 C3.66 6.01 4.32 5.02 5 4 C3.35 3.67 1.7 3.34 0 3 C0 2.01 0 1.02 0 0 Z " fill="#3E755A" transform="translate(47,15)"/>
<path d="M0 0 C0.33 0 0.66 0 1 0 C1.2062536 3.71256479 0.68304629 5.73909781 -1 9 C-1 10.32 -1 11.64 -1 13 C-2.98 13.66 -4.96 14.32 -7 15 C-7 13.35 -7 11.7 -7 10 C-5.68 9.67 -4.36 9.34 -3 9 C-3 7.68 -3 6.36 -3 5 C-2.34 4.67 -1.68 4.34 -1 4 C-0.34786708 1.97536745 -0.34786708 1.97536745 0 0 Z " fill="#714B36" transform="translate(70,66)"/>
<path d="M0 0 C-1.375 1.5 -1.375 1.5 -3 3 C-3.66 3 -4.32 3 -5 3 C-5 4.32 -5 5.64 -5 7 C-5.66 7 -6.32 7 -7 7 C-7.33 7.66 -7.66 8.32 -8 9 C-8.103125 8.38125 -8.20625 7.7625 -8.3125 7.125 C-8.87525373 4.63473516 -8.87525373 4.63473516 -12 3 C-10.5682384 2.30062798 -9.12932968 1.61587282 -7.6875 0.9375 C-6.48673828 0.36322266 -6.48673828 0.36322266 -5.26171875 -0.22265625 C-3 -1 -3 -1 0 0 Z " fill="#417156" transform="translate(72,34)"/>
<path d="M0 0 C0.33 0 0.66 0 1 0 C1 1.98 1 3.96 1 6 C-0.32 6.33 -1.64 6.66 -3 7 C-3.33 8.65 -3.66 10.3 -4 12 C-4.66 12 -5.32 12 -6 12 C-7.15837626 7.94568308 -6.83691257 5.78187881 -5 2 C-4.67 2.99 -4.34 3.98 -4 5 C-3.01 4.67 -2.02 4.34 -1 4 C-0.26676204 1.98491642 -0.26676204 1.98491642 0 0 Z " fill="#C1835D" transform="translate(68,38)"/>
<path d="M0 0 C0.99 0.33 1.98 0.66 3 1 C2.34 1 1.68 1 1 1 C0.87625 1.7425 0.7525 2.485 0.625 3.25 C0.04513299 5.80141485 -0.73708739 7.7267573 -2 10 C-2.66 10 -3.32 10 -4 10 C-4 9.01 -4 8.02 -4 7 C-4.66 6.67 -5.32 6.34 -6 6 C-5.67 5.34 -5.34 4.68 -5 4 C-6.65 4.66 -8.3 5.32 -10 6 C-10 5.34 -10 4.68 -10 4 C-7.69 3.34 -5.38 2.68 -3 2 C-2.67 2.99 -2.34 3.98 -2 5 C-1.34 3.35 -0.68 1.7 0 0 Z " fill="#2D2B20" transform="translate(62,39)"/>
<path d="M0 0 C4.75 0.875 4.75 0.875 7 2 C7 3.98 7 5.96 7 8 C4.0625 6.8125 4.0625 6.8125 1 5 C0.125 2.3125 0.125 2.3125 0 0 Z " fill="#5DB78D" transform="translate(42,40)"/>
<path d="M0 0 C-0.33 2.31 -0.66 4.62 -1 7 C-2.32 7.33 -3.64 7.66 -5 8 C-4.34 6.02 -3.68 4.04 -3 2 C-5.31 2.33 -7.62 2.66 -10 3 C-7.14414946 0.14414946 -3.95889689 0 0 0 Z " fill="#397156" transform="translate(82,30)"/>
<path d="M0 0 C0.33 1.32 0.66 2.64 1 4 C1.66 4 2.32 4 3 4 C3 3.01 3 2.02 3 1 C3.99 1.33 4.98 1.66 6 2 C5.34 2 4.68 2 4 2 C4 4.31 4 6.62 4 9 C2.68 8.67 1.36 8.34 0 8 C0 5.36 0 2.72 0 0 Z " fill="#463224" transform="translate(34,42)"/>
<path d="M0 0 C0.33 0.66 0.66 1.32 1 2 C1.99 2 2.98 2 4 2 C3.67 4.64 3.34 7.28 3 10 C2.01 10.33 1.02 10.66 0 11 C0.875 6.25 0.875 6.25 2 4 C1.34 4 0.68 4 0 4 C0 2.68 0 1.36 0 0 Z " fill="#543828" transform="translate(72,43)"/>
<path d="M0 0 C2.475 0.495 2.475 0.495 5 1 C5.33 2.32 5.66 3.64 6 5 C5.34 5 4.68 5 4 5 C3.67 5.99 3.34 6.98 3 8 C2.87625 7.360625 2.7525 6.72125 2.625 6.0625 C2.315625 5.0415625 2.315625 5.0415625 2 4 C1.34 3.67 0.68 3.34 0 3 C0 2.01 0 1.02 0 0 Z " fill="#8E6045" transform="translate(43,46)"/>
<path d="M0 0 C1.32 0.33 2.64 0.66 4 1 C4 2.32 4 3.64 4 5 C3.01 5 2.02 5 1 5 C1 5.99 1 6.98 1 8 C-0.32 7.34 -1.64 6.68 -3 6 C-2.01 6 -1.02 6 0 6 C0 5.01 0 4.02 0 3 C0.66 3 1.32 3 2 3 C2 2.34 2 1.68 2 1 C1.34 0.67 0.68 0.34 0 0 Z " fill="#453025" transform="translate(24,60)"/>
<path d="M0 0 C0.66 0 1.32 0 2 0 C2 2.31 2 4.62 2 7 C0.02 7.99 0.02 7.99 -2 9 C-1.34 6.03 -0.68 3.06 0 0 Z " fill="#B07454" transform="translate(71,66)"/>
<path d="M0 0 C0.99 0 1.98 0 3 0 C3 0.66 3 1.32 3 2 C3.99 2 4.98 2 6 2 C6 3.65 6 5.3 6 7 C4.68 7.33 3.36 7.66 2 8 C2.66 6.68 3.32 5.36 4 4 C3.34 4 2.68 4 2 4 C2 3.01 2 2.02 2 1 C1.34 0.67 0.68 0.34 0 0 Z " fill="#432D20" transform="translate(59,56)"/>
<path d="M0 0 C0.33 1.98 0.66 3.96 1 6 C-1.475 5.01 -1.475 5.01 -4 4 C-4 3.01 -4 2.02 -4 1 C-2 0 -2 0 0 0 Z " fill="#986649" transform="translate(27,71)"/>
<path d="M0 0 C0.99 0 1.98 0 3 0 C3.33 2.31 3.66 4.62 4 7 C2.68 6.34 1.36 5.68 0 5 C0 3.35 0 1.7 0 0 Z " fill="#5E3F2D" transform="translate(76,52)"/>
<path d="M0 0 C0.66 0 1.32 0 2 0 C2 1.32 2 2.64 2 4 C2.66 4 3.32 4 4 4 C3.67 5.32 3.34 6.64 3 8 C2.01 7.34 1.02 6.68 0 6 C-0.1875 2.875 -0.1875 2.875 0 0 Z " fill="#9E6D4F" transform="translate(30,38)"/>
<path d="M0 0 C0.99 0.33 1.98 0.66 3 1 C1.515 4.96 1.515 4.96 0 9 C-0.33 9 -0.66 9 -1 9 C-1.125 2.25 -1.125 2.25 0 0 Z " fill="#68AE85" transform="translate(60,38)"/>
<path d="M0 0 C-0.33 0.99 -0.66 1.98 -1 3 C-1.99 3.33 -2.98 3.66 -4 4 C-5.20882096 6.00016466 -5.20882096 6.00016466 -6 8 C-6 5.69 -6 3.38 -6 1 C-3.92446352 0.4465236 -2.15634036 0 0 0 Z " fill="#A77051" transform="translate(57,43)"/>
</svg>
